<?xml version="1.0" encoding="UTF-8" standalone="no"?>
<svg
   height="24px"
   viewBox="0 -960 960 960"
   width="24px"
   fill="#e3e3e3"
   version="1.1"
   id="svg1"
   sodipodi:docname="stars.svg"
   xml:space="preserve"
   inkscape:version="1.4.2 (f4327f4, 2025-05-13)"
   xmlns:inkscape="http://www.inkscape.org/namespaces/inkscape"
   xmlns:sodipodi="http://sodipodi.sourceforge.net/DTD/sodipodi-0.dtd"
   xmlns="http://www.w3.org/2000/svg"
   xmlns:svg="http://www.w3.org/2000/svg"><defs
     id="defs1" /><sodipodi:namedview
     id="namedview1"
     pagecolor="#ffffff"
     bordercolor="#000000"
     borderopacity="0.25"
     inkscape:showpageshadow="2"
     inkscape:pageopacity="0.0"
     inkscape:pagecheckerboard="0"
     inkscape:deskcolor="#d1d1d1"
     inkscape:zoom="22.627417"
     inkscape:cx="7.4025241"
     inkscape:cy="13.722291"
     inkscape:window-width="1920"
     inkscape:window-height="1013"
     inkscape:window-x="-9"
     inkscape:window-y="-9"
     inkscape:window-maximized="1"
     inkscape:current-layer="layer1" /><g
     inkscape:groupmode="layer"
     id="layer1"
     inkscape:label="Layer 1"
     style="display:inline"><path
       style="fill:#aaa4b8;stroke:none;stroke-width:1.57052"
       d="m 728.32553,-858.23503 c -10.26357,2.91708 -12.15023,18.62602 -14.86012,27.29299 -4.93315,15.77772 -11.15862,31.24634 -16.46782,46.89612 -3.1664,9.33326 -5.14011,19.17187 -9.57703,28.04572 -9.48266,18.96533 -28.01916,23.40663 -46.45054,29.99478 -13.32491,4.76288 -26.47706,10.29792 -39.99963,14.4723 -12.00735,3.70664 -36.87793,8.72702 -30.75432,26.33685 1.8046,5.18966 6.79598,6.79906 11.44415,8.51948 6.13096,2.26931 12.19182,4.80554 18.39063,6.88941 16.69514,5.61244 33.2159,11.74335 49.65472,18.12597 9.8573,3.82724 20.67055,6.84686 28.49875,14.32193 9.45377,9.02734 12.74065,22.51175 16.76472,34.44132 6.16127,18.26536 12.8116,36.37016 18.73299,54.71213 3.50976,10.87162 6.4283,30.17516 22.43952,25.96864 9.73568,-2.55784 11.18671,-17.10782 14.04307,-25.04911 5.52897,-15.37185 10.99475,-30.92279 16.0624,-46.43636 3.31017,-10.13336 6.03475,-21.28269 10.85208,-30.8043 10.94268,-21.62843 36.23329,-26.84338 57.43235,-34.02448 9.75432,-3.30423 19.16672,-7.67133 28.96525,-10.88077 12.19099,-3.9931 37.88051,-8.77612 30.959,-26.81824 -1.40759,-3.66903 -5.02162,-5.67691 -8.43047,-7.16116 -6.97214,-3.03573 -14.40977,-5.28484 -21.60899,-7.65629 -17.26693,-5.68781 -34.52735,-12.25744 -51.49379,-18.78452 -9.56529,-3.6798 -19.41129,-6.65639 -26.98812,-13.84404 -8.165,-7.74565 -11.03337,-18.27053 -14.87998,-28.41536 -7.56571,-19.95345 -13.10557,-40.68534 -20.61752,-60.68909 -3.81293,-10.15346 -6.51686,-29.88613 -22.1113,-25.45392 m 4.59767,19.0172 c 8.11358,25.374 16.64865,50.98148 26.2474,75.86137 4.41581,11.44587 8.00582,24.60635 18.34989,32.37016 7.53999,5.65919 15.77436,8.80043 24.36758,12.31647 15.32303,6.26959 30.91218,11.32836 46.43637,17.06848 6.80523,2.51625 13.53099,4.99748 20.22969,7.793 2.98522,1.24585 6.60946,1.89441 8.73555,4.47419 -10.18681,1.32239 -20.26393,7.07519 -29.88478,10.49201 -15.32707,5.44327 -30.44568,10.84479 -45.51683,16.96268 -10.56585,4.28909 -21.24654,7.92623 -28.97558,16.86165 -8.71938,10.08028 -12.26079,23.9608 -16.8892,36.14269 -4.31098,11.34643 -7.44336,23.06991 -11.50874,34.48244 -3.96594,11.13339 -8.70378,22.41685 -11.13158,34.02268 -2.71618,-0.85521 -2.83179,-4.00831 -3.59081,-6.43672 -1.8715,-5.98801 -4.18357,-11.70046 -6.65281,-17.47111 -10.50187,-24.54292 -13.2452,-53.96355 -28.61547,-76.3144 -8.90057,-12.94281 -22.07943,-17.84478 -36.08276,-23.03476 -14.30034,-5.30005 -28.73183,-10.31016 -42.75823,-16.35716 -7.01087,-3.02249 -14.39165,-4.70093 -21.60899,-7.05117 -1.5511,-0.50511 -6.45699,-1.17186 -7.01077,-2.93594 -0.43513,-1.38614 1.46388,-2.06782 2.41524,-2.42096 3.14905,-1.16906 6.41742,-2.13797 9.65296,-3.03595 14.05692,-3.90117 27.34742,-10.67979 41.42006,-14.67423 7.71712,-2.19051 14.619,-5.77896 22.02762,-8.69043 8.84124,-3.47451 18.75207,-6.48152 25.72843,-13.31089 11.05071,-10.81773 14.82514,-25.44381 20.03209,-39.52852 4.65456,-12.59036 8.28374,-25.48951 12.66566,-38.16056 3.4139,-9.87173 7.68447,-19.37134 10.5387,-29.42502 h 1.37931 m -262.9861,101.90168 c -5.23022,1.50972 -8.16494,6.57219 -10.18546,11.20072 -4.41552,10.11497 -7.27117,20.92441 -11.15851,31.26409 -10.86102,28.88819 -20.16606,58.38829 -30.56876,87.35552 -5.23737,14.58386 -9.55362,29.70422 -16.32776,43.67775 -5.82676,12.01935 -14.19112,23.11183 -25.09198,30.99093 -11.60712,8.3896 -26.21901,13.10528 -39.53986,17.9876 -23.49527,8.61141 -47.35696,16.28959 -70.80395,24.95724 -19.81,7.32314 -41.05902,12.85571 -60.22934,21.71507 -7.58565,3.5056 -14.67992,10.66928 -11.99967,19.7504 2.57411,8.72151 9.32777,11.18383 17.0571,14.16585 10.63871,4.10444 21.48064,7.58906 32.18362,11.48703 28.26903,10.29552 56.71754,20.02277 85.05669,30.11747 18.08811,6.44318 39.8454,12.82069 54.11436,26.15984 14.39641,13.45832 20.04915,30.98297 27.20179,48.64331 14.21872,35.10716 24.69799,71.92401 37.40345,107.58523 1.53353,4.30424 3.18474,8.5656 4.70907,12.87344 4.60096,13.00292 8.20529,37.99287 27.8343,32.67671 5.59914,-1.51646 9.23018,-6.4531 11.47608,-11.52748 4.81855,-10.88712 7.84172,-22.79355 11.7623,-34.02267 9.3069,-26.65649 19.11609,-53.1651 27.7559,-79.99926 5.76015,-17.8903 11.37016,-36.40272 19.62165,-53.33285 12.47009,-25.58559 35.58471,-35.80012 60.87711,-45.08152 23.94011,-8.78517 48.44255,-16.433 72.18325,-25.72382 20.61662,-8.06824 43.08835,-13.19797 62.98792,-22.90462 7.19708,-3.51061 11.09803,-12.14053 8.63262,-19.85222 -2.03616,-6.36892 -7.58008,-9.13975 -13.23027,-11.73569 -11.50314,-5.28502 -24.06284,-8.10248 -35.86175,-12.54675 -29.24059,-11.01402 -58.94522,-20.87031 -88.27504,-31.60852 -17.62691,-6.45356 -37.50146,-12.16656 -51.57186,-25.17717 -15.64871,-14.47005 -22.3729,-35.99751 -29.38774,-55.48234 -8.41448,-23.37245 -16.895,-46.81641 -24.99584,-70.34418 -3.24733,-9.43137 -5.68017,-19.19701 -9.40001,-28.50547 -3.01676,-7.54922 -5.83608,-15.28744 -8.43865,-22.98829 -1.77459,-5.25084 -3.32012,-11.45307 -6.43246,-16.09147 -3.64916,-5.43852 -11.10679,-7.48838 -17.3583,-5.68388 m 4.13789,559.24166 c -17.49691,-45.43422 -31.12736,-92.46143 -48.70711,-137.92976 -9.31021,-24.07996 -16.50746,-48.53842 -38.20671,-64.83193 -16.76618,-12.5894 -36.99386,-19.03236 -56.53312,-25.85331 -24.3827,-8.51179 -48.39812,-17.81149 -72.64302,-26.64908 -12.85818,-4.68694 -26.11142,-7.63564 -38.62033,-13.41621 -3.62176,-1.67367 -9.36207,-2.1336 -11.49416,-5.79994 5.49669,-3.33034 11.93514,-4.84202 17.93088,-7.00684 9.66676,-3.49021 19.25203,-7.12166 28.96525,-10.50547 24.54225,-8.54973 48.87034,-18.10412 73.56255,-26.28107 19.42959,-6.43425 41.05021,-12.6961 57.47073,-25.40106 25.37518,-19.63332 33.63941,-47.68151 43.99597,-76.55136 14.92489,-41.60426 29.29931,-83.42864 44.27907,-125.05631 3.27719,2.22193 4.38271,8.41384 5.85315,11.95392 4.76671,11.4754 7.81484,23.34579 12.17174,34.9422 9.94933,26.48126 18.8422,53.31712 28.33341,79.99927 5.84691,16.43719 11.01888,33.45369 19.6295,48.73518 23.18715,41.1509 75.61764,47.44657 115.61973,63.58957 21.77793,8.78859 44.49201,14.9338 66.20629,23.9607 5.07549,2.10991 10.55228,3.14034 15.63205,5.26777 1.27703,0.5348 4.3498,1.62305 3.79239,3.54865 -0.75801,2.6185 -10.55644,4.0852 -12.98772,5.09042 -13.60204,5.62395 -27.5094,9.76756 -41.37893,14.72143 -22.88497,8.17398 -45.58906,16.96975 -68.50512,24.99871 -27.61491,9.67523 -55.03238,18.66379 -73.28438,43.18708 -10.83066,14.55198 -15.60904,32.45305 -21.86408,49.19674 -10.59449,28.35973 -19.51004,57.42864 -29.61337,85.97621 -4.19498,11.85317 -8.55848,23.61083 -12.8717,35.40198 -1.49094,4.07581 -2.86945,12.45734 -6.73296,14.71251 M 245.57136,-370.04162 c -10.42168,1.94928 -12.12594,15.40131 -15.07687,23.69281 -8.04394,22.60195 -13.37687,47.86033 -24.97811,68.96488 -5.11956,9.3133 -14.95768,12.6182 -24.31225,15.99494 -15.61037,5.63494 -31.15938,11.35125 -46.89612,16.63603 -10.78255,3.62105 -33.13031,7.68868 -28.05069,23.92024 3.10457,9.92043 19.05517,12.15534 27.59092,14.78378 14.65226,4.51191 28.86608,10.51222 43.218,15.91552 8.27096,3.11392 17.48752,5.40664 23.69461,12.13873 6.9188,7.50398 9.23828,17.31509 12.72089,26.58661 5.94006,15.81377 11.80391,31.69085 16.87619,47.81566 3.32686,10.576078 5.4727,25.651704 20.27084,23.023426 9.26934,-1.646327 12.9192,-16.06587 14.86826,-23.942966 2.4792,-10.01965 6.60942,-19.66352 9.8161,-29.42501 4.08677,-12.44061 7.0189,-25.75228 13.51989,-37.24103 5.92071,-10.46328 16.85131,-14.3665 27.54227,-18.25051 15.47776,-5.62297 30.86135,-11.39042 46.43637,-16.6903 10.87083,-3.69913 31.34315,-7.5854 25.37085,-23.90923 -3.33385,-9.11226 -16.68722,-10.22378 -24.45133,-13.37261 -14.42004,-5.84815 -29.42686,-10.75814 -44.13752,-15.89452 -9.78489,-3.41654 -19.66824,-5.8605 -27.12439,-13.57589 -6.20212,-6.41775 -8.50348,-16.55423 -11.37393,-24.74256 -5.90743,-16.85156 -10.35265,-34.44629 -16.92721,-51.03402 -3.33813,-8.42204 -6.11564,-23.7285 -18.59677,-21.39398 m 1.83906,19.09515 c 4.37893,13.43486 10.08409,26.48469 14.2414,39.99963 4.8532,15.77729 8.5554,32.6824 18.87308,45.95813 4.89236,6.29502 12.27174,10.27306 19.29882,13.6397 13.95378,6.68518 28.73829,10.31173 43.218,15.5441 8.30346,3.00054 18.40086,9.19622 27.12619,9.91476 -0.97112,2.54033 -3.63037,2.70219 -5.97696,3.53659 -5.05176,1.79629 -10.16722,3.51469 -15.17227,5.39445 -19.73256,7.41097 -42.95522,12.10623 -60.23608,24.52653 -12.61212,9.06472 -18.55299,25.34016 -22.86588,39.64521 -5.52122,18.31295 -12.37776,36.13787 -18.5063,54.252367 h -0.45977 c -2.58972,-11.296037 -7.62458,-21.692727 -11.25719,-32.643367 -7.12155,-21.46825 -11.23109,-50.18094 -31.96081,-63.17454 -17.59351,-11.02782 -39.01263,-15.70129 -58.39026,-22.69134 -4.53168,-1.63472 -9.18861,-3.69502 -13.79298,-5.02976 -2.61534,-0.75818 -6.19266,-0.96898 -7.81602,-3.35637 21.33916,-8.1824 43.89446,-14.06388 64.82699,-23.37005 11.66285,-5.18505 21.2687,-9.35656 28.87088,-20.3077 5.43646,-7.83135 7.66743,-16.87901 10.67078,-25.74689 4.12758,-12.1874 8.4051,-24.2173 12.74038,-36.32151 2.11715,-5.91107 2.63215,-14.84463 6.568,-19.76994 z"
       id="path1" /><path
       style="fill:#fffafa;stroke-width:2.49868;stroke-linecap:round;stroke-opacity:0.473224;paint-order:stroke fill markers"
       d="m 469.63586,-191.98162 c -2.4431,-6.7396 -11.22556,-32.05127 -19.51677,-56.24818 -32.26159,-94.15177 -39.24368,-110.02475 -55.44753,-126.05465 -12.47438,-12.34051 -24.29724,-18.96118 -50.72674,-28.40647 -9.92531,-3.54705 -31.78877,-11.50053 -48.58544,-17.6743 -16.79668,-6.17383 -39.2848,-14.19227 -49.97359,-17.81885 -25.03346,-8.49349 -35.39797,-12.56779 -35.39797,-13.91492 0,-0.5968 2.65487,-2.06115 5.89969,-3.25914 26.04931,-9.61767 92.69289,-33.30906 114.17577,-40.58879 38.36931,-13.00207 50.12106,-19.05592 63.97718,-32.9579 11.47358,-11.51152 18.36426,-22.10278 25.07113,-38.53518 3.79437,-9.2964 54.62577,-152.26334 54.62577,-153.63869 0,-0.44037 0.6414,-0.15894 1.42478,0.62507 1.37514,1.37527 5.05267,11.60793 38.84665,108.1004 20.51141,58.56636 24.80904,67.51405 39.38213,81.99479 14.66098,14.56807 28.82115,21.85395 69.57283,35.79777 16.7967,5.74747 45.53153,15.83724 63.85515,22.42217 18.32368,6.58493 37.84459,13.5493 43.37986,15.47626 5.53513,1.92672 10.06413,3.98661 10.06413,4.57712 0,0.59052 -6.71516,3.42248 -14.92263,6.29376 -56.89159,19.9018 -132.16792,47.69935 -142.63298,52.67054 -22.85519,10.85693 -36.07405,23.09341 -45.77213,42.37045 -4.23537,8.41918 -21.68729,55.95368 -30.6023,83.3537 -6.94578,21.34762 -29.96832,85.34738 -31.12379,86.52018 -0.62192,0.63197 -3.13035,-4.36542 -5.57345,-11.10527 z"
       id="path2" /><path
       style="fill:#fffafa;stroke-width:2.49868;stroke-linecap:round;stroke-opacity:0.473224;paint-order:stroke fill markers"
       d="m 731.17128,-544.48185 c -0.45859,-1.4455 -3.29306,-9.18697 -6.30494,-17.20358 -3.01225,-8.01662 -8.60449,-24.77386 -12.42738,-37.23838 -8.12976,-26.50687 -14.40794,-39.77073 -22.7942,-48.15698 -7.29769,-7.29766 -14.81155,-11.23419 -37.18931,-19.48363 -9.34892,-3.44643 -23.24474,-8.7132 -30.87959,-11.70395 -7.63486,-2.99074 -18.44361,-6.78881 -24.01939,-8.44015 -5.57597,-1.65131 -9.75631,-3.38403 -9.28987,-3.85047 0.46488,-0.46613 7.52712,-3.12546 15.69049,-5.90898 27.20917,-9.27771 39.67224,-13.8599 59.26345,-21.7889 30.95618,-12.52867 32.78753,-15.04643 52.0385,-71.54462 12.74916,-37.41655 15.98386,-46.51013 16.85386,-47.38013 0.34552,-0.34802 3.33201,7.61841 6.63061,17.70327 10.25661,31.35622 23.79486,67.94762 28.24998,76.35481 7.26616,13.71177 14.7591,18.046 59.33532,34.32189 14.12442,5.15721 30.91013,11.3956 37.30151,13.86308 l 11.62064,4.48634 -12.31475,4.73367 c -6.77308,2.60354 -21.37243,8.06929 -32.44295,12.14611 -43.96283,16.1897 -53.64257,21.25982 -60.99731,31.94954 -5.363,7.79489 -7.41875,13.07373 -23.29135,59.80921 -7.26038,21.37752 -13.42668,39.11395 -13.7029,39.41411 -0.27641,0.30154 -0.87509,-0.63701 -1.33054,-2.08251 z"
       id="path3" /><path
       style="fill:#ffffff;stroke-width:2.49868;stroke-linecap:round;stroke-opacity:0.473224;paint-order:stroke fill markers"
       d="m 235.68425,-135.17471 c -12.19161,-37.09986 -16.54281,-46.53917 -25.08082,-54.40923 -8.5274,-7.86026 -18.74924,-12.56069 -51.4706,-23.66809 -15.93017,-5.40761 -30.19941,-10.33307 -31.70944,-10.94557 -2.10248,-0.85248 1.47384,-2.51095 15.26971,-7.08141 53.78926,-17.81872 69.01948,-25.95646 77.40137,-41.35677 3.52726,-6.48072 19.04154,-50.33757 23.86984,-67.47689 1.2654,-4.49168 2.78761,-7.61519 3.38271,-6.94081 1.56147,1.76966 11.36544,29.00735 17.42443,48.40928 11.45262,36.67324 18.68995,43.57247 60.43326,57.61001 9.54357,3.20951 21.41231,7.5998 26.37496,9.7565 4.96284,2.15664 10.81931,4.36981 13.01483,4.91761 5.40572,1.34939 4.98419,1.54036 -28.78261,13.03467 -55.61271,18.93053 -57.26058,20.58523 -75.8911,76.20627 -6.43183,19.20204 -12.07859,34.91288 -12.54837,34.91288 -0.4699,0 -5.72944,-14.83594 -11.68817,-32.9687 z"
       id="path4" /><path
       style="fill:#ffffff;stroke-width:2.49868;stroke-linecap:round;stroke-opacity:0.473224;paint-order:stroke fill markers"
       d="m 472.40971,-185.11066 c -1.91603,-4.08649 -11.99059,-32.65492 -28.03884,-79.50951 -13.26755,-38.73602 -25.37286,-70.65084 -31.85502,-83.98341 -13.57022,-27.9117 -29.42699,-40.00029 -72.7355,-55.45068 -9.92531,-3.54089 -21.16937,-7.61029 -24.9868,-9.0431 -22.29723,-8.36886 -55.73091,-20.38998 -75.65446,-27.2017 -24.79348,-8.47665 -30.8664,-11.36289 -27.62997,-13.13154 2.15858,-1.17978 62.48152,-23.06482 89.93043,-32.62683 63.38186,-22.07948 67.84539,-23.87628 80.22837,-32.29526 15.3319,-10.42404 27.05098,-25.55341 36.01418,-46.4947 2.68308,-6.26825 16.14946,-43.25842 29.92592,-82.20095 13.7764,-38.94251 25.54272,-71.7112 26.14731,-72.81929 1.3073,-2.39567 3.08261,1.52585 11.28304,24.91928 3.07759,8.78009 7.69624,21.89816 10.26328,29.15126 6.16146,17.40982 14.84171,41.95437 26.26347,74.26634 11.33386,32.06327 18.41784,46.73492 27.46773,56.8887 14.14252,15.86751 32.07219,25.7538 69.07266,38.08602 11.83399,3.94451 22.76574,7.76257 24.29272,8.48507 1.52717,0.72244 7.149,2.82002 12.49335,4.6613 21.4835,7.4016 42.36096,14.76865 55.52624,19.59353 7.63486,2.79804 15.75557,5.6501 18.04601,6.33799 5.30396,1.5925 10.41116,4.26992 10.41116,5.45661 0,1.50016 -4.97666,3.53869 -30.53942,12.50924 -23.11816,8.11254 -92.41446,33.19693 -113.13462,40.95334 -27.96993,10.47027 -47.43349,26.31655 -57.94824,47.17869 -4.51555,8.95937 -17.40003,44.25043 -33.70213,92.31231 -13.81541,40.73052 -26.36222,74.84092 -28.20733,76.68603 -0.62193,0.62192 -1.93928,-0.60936 -2.93373,-2.72893 z"
       id="path5" /><path
       style="fill:#ffffff;stroke-width:2.49868;stroke-linecap:round;stroke-opacity:0.473224;paint-order:stroke fill markers"
       d="m 723.82088,-564.80876 c -4.0476,-11.64319 -9.51891,-28.25249 -12.15851,-36.90963 -8.7716,-28.7684 -16.52494,-42.35574 -29.11892,-51.02956 -6.99233,-4.81576 -37.59263,-17.21787 -75.95775,-30.78517 -9.77158,-3.45557 -17.2676,-6.75497 -16.65786,-7.33197 0.60936,-0.57669 12.97732,-5.23303 27.48357,-10.34673 14.50625,-5.11373 34.18334,-12.44673 43.72687,-16.29562 33.0194,-13.31662 34.57591,-15.40264 54.11969,-72.52954 14.90579,-43.56985 15.96457,-46.49592 16.82528,-46.4996 0.46487,-0.002 3.83144,8.89794 7.48365,19.7776 8.63892,25.73402 23.91673,67.03472 27.08717,73.2252 6.25443,12.21211 17.72443,19.2239 52.03988,31.81282 44.62553,16.37128 54.80519,20.28554 54.81832,21.07848 0.0131,0.79085 -8.52176,4.17525 -57.59468,22.8385 -36.89073,14.03015 -43.47126,18.62618 -51.43517,35.92357 -2.48456,5.39561 -9.33554,23.86531 -15.22511,41.0437 -5.88944,17.17846 -11.94172,34.82537 -13.4491,39.21541 -1.5077,4.38991 -3.16554,7.98188 -3.68444,7.98188 -0.52141,0 -4.25548,-9.5262 -8.30289,-21.16934 z"
       id="path6" /></g></svg>
